<?xml version="1.0" encoding="UTF-8" standalone="no"?>
<!-- Created with Inkscape (http://www.inkscape.org/) -->

<svg
   width="128"
   height="128"
   viewBox="0 0 128 128"
   version="1.1"
   id="svg1"
   inkscape:version="1.3.2 (091e20e, 2023-11-25, custom)"
   sodipodi:docname="JADIEPOP.svg"
   inkscape:export-filename="JADIEPOP.png"
   inkscape:export-xdpi="96"
   inkscape:export-ydpi="96"
   xmlns:inkscape="http://www.inkscape.org/namespaces/inkscape"
   xmlns:sodipodi="http://sodipodi.sourceforge.net/DTD/sodipodi-0.dtd"
   xmlns="http://www.w3.org/2000/svg"
   xmlns:svg="http://www.w3.org/2000/svg">
  <sodipodi:namedview
     id="namedview1"
     pagecolor="#ffffff"
     bordercolor="#999999"
     borderopacity="1"
     inkscape:showpageshadow="2"
     inkscape:pageopacity="0"
     inkscape:pagecheckerboard="0"
     inkscape:deskcolor="#d1d1d1"
     inkscape:document-units="mm"
     inkscape:zoom="11.588215"
     inkscape:cx="85.992533"
     inkscape:cy="67.611791"
     inkscape:window-width="1920"
     inkscape:window-height="1009"
     inkscape:window-x="-8"
     inkscape:window-y="-8"
     inkscape:window-maximized="1"
     inkscape:current-layer="layer1" />
  <defs
     id="defs1">
    <inkscape:path-effect
       effect="offset"
       id="path-effect6"
       is_visible="true"
       lpeversion="1.2"
       linejoin_type="miter"
       unit="mm"
       offset="0.3"
       miter_limit="4"
       attempt_force_join="false"
       update_on_knot_move="true" />
    <inkscape:path-effect
       effect="bend_path"
       id="path-effect5"
       is_visible="true"
       lpeversion="1"
       bendpath="m 6.3223557,62.209516 c 0,0 11.5683223,5.742592 28.3680593,4.832495 25.402697,-1.376146 19.332231,-9.421999 44.432327,-5.006399 19.523801,3.434621 45.308908,-3.10529 45.308908,-3.10529"
       prop_scale="1.13"
       scale_y_rel="false"
       vertical="false"
       hide_knot="false"
       bendpath-nodetypes="cssc" />
    <inkscape:path-effect
       effect="bend_path"
       id="path-effect3"
       is_visible="true"
       lpeversion="1"
       bendpath="m 6.3223557,62.209516 c 0,0 11.5683223,5.742592 28.3680593,4.832495 25.402697,-1.376146 19.332231,-9.421999 44.432327,-5.006399 19.523801,3.434621 45.308908,-3.10529 45.308908,-3.10529"
       prop_scale="1.13"
       scale_y_rel="false"
       vertical="false"
       hide_knot="false"
       bendpath-nodetypes="cssc" />
    <inkscape:path-effect
       effect="fillet_chamfer"
       id="path-effect2"
       is_visible="true"
       lpeversion="1"
       nodesatellites_param="F,0,0,1,0,2.38125,0,1 @ F,0,0,1,0,2.38125,0,1 @ F,0,0,1,0,2.38125,0,1 @ F,0,0,1,0,2.38125,0,1 @ F,0,0,1,0,2.38125,0,1 @ F,0,0,1,0,2.38125,0,1 @ F,0,0,1,0,2.38125,0,1 @ F,0,0,1,0,2.38125,0,1 @ F,0,0,1,0,2.38125,0,1 @ F,0,0,1,0,2.38125,0,1 @ F,0,0,1,0,2.38125,0,1 @ F,0,0,1,0,2.38125,0,1 @ F,0,0,1,0,2.38125,0,1 @ F,0,0,1,0,2.38125,0,1 @ F,0,0,1,0,2.38125,0,1 @ F,0,0,1,0,2.38125,0,1 @ F,0,0,1,0,2.38125,0,1 @ F,0,0,1,0,2.38125,0,1 @ F,0,0,1,0,2.38125,0,1 @ F,0,0,1,0,2.38125,0,1 @ F,0,0,1,0,2.38125,0,1 @ F,0,0,1,0,2.38125,0,1 @ F,0,0,1,0,2.38125,0,1 @ F,0,0,1,0,2.38125,0,1 @ F,0,0,1,0,2.38125,0,1 @ F,0,0,1,0,2.38125,0,1 @ F,0,0,1,0,2.38125,0,1 @ F,0,0,1,0,2.38125,0,1 @ F,0,0,1,0,2.38125,0,1 @ F,0,0,1,0,2.38125,0,1 @ F,0,0,1,0,2.38125,0,1 @ F,0,0,1,0,2.38125,0,1 @ F,0,0,1,0,2.38125,0,1 @ F,0,0,1,0,2.38125,0,1 @ F,0,0,1,0,2.38125,0,1 @ F,0,0,1,0,2.38125,0,1 @ F,0,0,1,0,2.38125,0,1 @ F,0,0,1,0,2.38125,0,1 @ F,0,0,1,0,2.38125,0,1 @ F,0,0,1,0,2.38125,0,1 @ F,0,0,1,0,2.38125,0,1 @ F,0,0,1,0,2.38125,0,1 @ F,0,0,1,0,2.38125,0,1 @ F,0,0,1,0,2.38125,0,1 @ F,0,0,1,0,2.38125,0,1 @ F,0,0,1,0,2.38125,0,1 @ F,0,0,1,0,2.38125,0,1 @ F,0,0,1,0,2.38125,0,1 @ F,0,0,1,0,2.38125,0,1 @ F,0,0,1,0,2.38125,0,1 | F,0,0,1,0,2.38125,0,1 @ F,0,0,1,0,2.38125,0,1 @ F,0,0,1,0,2.38125,0,1 @ F,0,0,1,0,2.38125,0,1 @ F,0,0,1,0,2.38125,0,1 @ F,0,0,1,0,2.38125,0,1 @ F,0,0,1,0,2.38125,0,1 @ F,0,0,1,0,2.38125,0,1 @ F,0,0,1,0,2.38125,0,1 @ F,0,0,1,0,2.38125,0,1 @ F,0,0,1,0,2.38125,0,1 @ F,0,0,1,0,2.38125,0,1 @ F,0,0,1,0,2.38125,0,1 @ F,0,0,1,0,2.38125,0,1 @ F,0,0,1,0,2.38125,0,1 @ F,0,0,1,0,2.38125,0,1 @ F,0,0,1,0,2.38125,0,1 @ F,0,0,1,0,2.38125,0,1 @ F,0,0,1,0,2.38125,0,1 @ F,0,0,1,0,2.38125,0,1 @ F,0,0,1,0,2.38125,0,1 @ F,0,0,1,0,2.38125,0,1 @ F,0,0,1,0,2.38125,0,1 @ F,0,0,1,0,2.38125,0,1 @ F,0,0,1,0,2.38125,0,1 @ F,0,0,1,0,2.38125,0,1 @ F,0,0,1,0,2.38125,0,1 @ F,0,0,1,0,2.38125,0,1 @ F,0,0,1,0,2.38125,0,1 @ F,0,0,1,0,2.38125,0,1 @ F,0,0,1,0,2.38125,0,1 @ F,0,0,1,0,2.38125,0,1 @ F,0,0,1,0,2.38125,0,1 @ F,0,0,1,0,2.38125,0,1 @ F,0,0,1,0,2.38125,0,1 @ F,0,0,1,0,2.38125,0,1 @ F,0,0,1,0,2.38125,0,1 @ F,0,0,1,0,2.38125,0,1 @ F,0,0,1,0,2.38125,0,1 @ F,0,0,1,0,2.38125,0,1 @ F,0,0,1,0,2.38125,0,1 @ F,0,0,1,0,2.38125,0,1 | F,0,0,1,0,2.38125,0,1 @ F,0,0,1,0,2.38125,0,1 @ F,0,0,1,0,2.38125,0,1 @ F,0,0,1,0,2.38125,0,1 @ F,0,0,1,0,2.38125,0,1 @ F,0,0,1,0,2.38125,0,1 @ F,0,0,1,0,2.38125,0,1 @ F,0,0,1,0,2.38125,0,1 @ F,0,0,1,0,2.38125,0,1 @ F,0,0,1,0,2.38125,0,1 | F,0,0,1,0,2.38125,0,1 @ F,0,0,1,0,2.38125,0,1 @ F,0,0,1,0,2.38125,0,1 @ F,0,0,1,0,2.38125,0,1 @ F,0,0,1,0,2.38125,0,1 @ F,0,0,1,0,2.38125,0,1 @ F,0,0,1,0,2.38125,0,1 @ F,0,0,1,0,2.38125,0,1 @ F,0,0,1,0,2.38125,0,1 @ F,0,0,1,0,2.38125,0,1 @ F,0,0,1,0,2.38125,0,1 @ F,0,0,1,0,2.38125,0,1 @ F,0,0,1,0,2.38125,0,1 @ F,0,0,1,0,2.38125,0,1 @ F,0,0,1,0,2.38125,0,1 @ F,0,0,1,0,2.38125,0,1 @ F,0,0,1,0,2.38125,0,1 @ F,0,0,1,0,2.38125,0,1 @ F,0,0,1,0,2.38125,0,1 @ F,0,0,1,0,2.38125,0,1 @ F,0,0,1,0,2.38125,0,1 @ F,0,0,1,0,2.38125,0,1 @ F,0,0,1,0,2.38125,0,1 @ F,0,0,1,0,2.38125,0,1 @ F,0,0,1,0,2.38125,0,1 @ F,0,0,1,0,2.38125,0,1 @ F,0,0,1,0,2.38125,0,1 @ F,0,0,1,0,2.38125,0,1 @ F,0,0,1,0,2.38125,0,1 @ F,0,0,1,0,2.38125,0,1 @ F,0,0,1,0,2.38125,0,1 @ F,0,0,1,0,2.38125,0,1 @ F,0,0,1,0,2.38125,0,1 @ F,0,0,1,0,2.38125,0,1 @ F,0,0,1,0,2.38125,0,1 @ F,0,0,1,0,2.38125,0,1 @ F,0,0,1,0,2.38125,0,1 @ F,0,0,1,0,2.38125,0,1 @ F,0,0,1,0,2.38125,0,1 @ F,0,0,1,0,2.38125,0,1 @ F,0,0,1,0,2.38125,0,1 @ F,0,0,1,0,2.38125,0,1 @ F,0,0,1,0,2.38125,0,1 @ F,0,0,1,0,2.38125,0,1 @ F,0,0,1,0,2.38125,0,1 @ F,0,0,1,0,2.38125,0,1 @ F,0,0,1,0,2.38125,0,1 @ F,0,0,1,0,2.38125,0,1 @ F,0,0,1,0,2.38125,0,1 @ F,0,0,1,0,2.38125,0,1 @ F,0,0,1,0,2.38125,0,1 @ F,0,0,1,0,2.38125,0,1 @ F,0,0,1,0,2.38125,0,1 @ F,0,0,1,0,2.38125,0,1 @ F,0,0,1,0,2.38125,0,1 @ F,0,0,1,0,2.38125,0,1 | F,0,0,1,0,2.38125,0,1 @ F,0,0,1,0,2.38125,0,1 @ F,0,0,1,0,2.38125,0,1 @ F,0,0,1,0,2.38125,0,1 @ F,0,0,1,0,2.38125,0,1 @ F,0,0,1,0,2.38125,0,1 @ F,0,0,1,0,2.38125,0,1 @ F,0,0,1,0,2.38125,0,1 @ F,0,0,1,0,2.38125,0,1 @ F,0,0,1,0,2.38125,0,1 @ F,0,0,1,0,2.38125,0,1 @ F,0,0,1,0,2.38125,0,1 @ F,0,0,1,0,2.38125,0,1 @ F,0,0,1,0,2.38125,0,1 | F,0,0,1,0,2.38125,0,1 @ F,0,0,1,0,2.38125,0,1 @ F,0,0,1,0,2.38125,0,1 @ F,0,0,1,0,2.38125,0,1 @ F,0,0,1,0,2.38125,0,1 @ F,0,0,1,0,2.38125,0,1 @ F,0,0,1,0,2.38125,0,1 @ F,0,0,1,0,2.38125,0,1 @ F,0,0,1,0,2.38125,0,1 @ F,0,0,1,0,2.38125,0,1 @ F,0,0,1,0,2.38125,0,1 @ F,0,0,1,0,2.38125,0,1 @ F,0,0,1,0,2.38125,0,1 @ F,0,0,1,0,2.38125,0,1 @ F,0,0,1,0,2.38125,0,1 @ F,0,0,1,0,2.38125,0,1 @ F,0,0,1,0,2.38125,0,1 @ F,0,0,1,0,2.38125,0,1 @ F,0,0,1,0,2.38125,0,1 @ F,0,0,1,0,2.38125,0,1 @ F,0,0,1,0,2.38125,0,1 @ F,0,0,1,0,2.38125,0,1 @ F,0,0,1,0,2.38125,0,1 @ F,0,0,1,0,2.38125,0,1 @ F,0,0,1,0,2.38125,0,1 @ F,0,0,1,0,2.38125,0,1 @ F,0,0,1,0,2.38125,0,1 @ F,0,0,1,0,2.38125,0,1 @ F,0,0,1,0,2.38125,0,1 @ F,0,0,1,0,2.38125,0,1 @ F,0,0,1,0,2.38125,0,1 @ F,0,0,1,0,2.38125,0,1 @ F,0,0,1,0,2.38125,0,1 | F,0,0,1,0,2.38125,0,1 @ F,0,0,1,0,2.38125,0,1 @ F,0,0,1,0,2.38125,0,1 @ F,0,0,1,0,2.38125,0,1 @ F,0,0,1,0,2.38125,0,1 @ F,0,0,1,0,2.38125,0,1 @ F,0,0,1,0,2.38125,0,1 @ F,0,0,1,0,2.38125,0,1 @ F,0,0,1,0,2.38125,0,1 @ F,0,0,1,0,2.38125,0,1"
       radius="9"
       unit="px"
       method="auto"
       mode="F"
       chamfer_steps="1"
       flexible="false"
       use_knot_distance="true"
       apply_no_radius="true"
       apply_with_radius="true"
       only_selected="false"
       hide_knots="false" />
    <inkscape:path-effect
       effect="knot"
       id="path-effect1"
       is_visible="false"
       lpeversion="1"
       switcher_size="15"
       interruption_width="3"
       prop_to_stroke_width="true"
       add_stroke_width="inkscape_1.0_and_up"
       both="false"
       inverse_width="false"
       add_other_stroke_width="inkscape_1.0_and_up"
       crossing_points_vector="" />
    <rect
       x="8.6294564"
       y="17.258913"
       width="111.66517"
       height="109.42151"
       id="rect1" />
  </defs>
  <g
     inkscape:label="Layer 1"
     inkscape:groupmode="layer"
     id="layer1"
     style="fill:none;stroke-width:1.0015748;stroke-dasharray:none;stroke:none;stroke-opacity:1">
    <path
       d="m 15.917969,23.607422 -0.13086,1.21289 c -0.115873,1.066369 -0.231122,2.134625 -0.345703,3.201172 l -0.0918,0.847657 0.789063,0.322265 c 0.223674,0.09139 0.379503,0.155466 0.472656,0.195313 l 0.03516,0.01367 0.03516,0.01367 c 0.222969,0.07811 0.448007,0.158545 0.675781,0.238282 l 0.08594,0.0293 0.646485,0.115234 c 1.246383,0.403637 2.029544,0.679918 2.576172,0.882812 -0.06372,0.590901 -0.129231,1.192784 -0.300782,2.56836 v 0.0059 l -0.002,0.0059 c -0.485984,4.267534 -0.968477,8.53693 -1.449219,12.804687 v 0.0059 l -0.002,0.0059 c -0.233835,2.278104 -0.466193,4.553528 -0.697265,6.832031 -0.339148,2.665663 -0.67726,5.332236 -1.017578,8.001953 -0.115885,0.937594 -0.204408,1.916082 -0.265625,2.935547 v -0.01758 c -0.03252,0.426063 -0.09261,0.996989 -0.183594,1.736328 -0.53833,4.630697 -1.076353,9.261206 -1.611328,13.892578 -0.123508,0.916281 -0.245467,1.832277 -0.369141,2.748047 l -0.0039,0.02539 -0.002,0.02344 c -0.134843,1.464608 -0.215382,2.305418 -0.238281,2.492188 -0.05348,0.436186 -0.142548,0.987155 -0.269532,1.65625 -0.243161,1.2207 -0.448407,2.508855 -0.615234,3.861328 l -0.269531,2.18164 c -0.227937,1.84789 -0.609966,2.901313 -1.056641,3.425782 -0.240164,0.285899 -0.399927,0.279575 -0.425781,0.27539 -0.02505,-0.0041 -0.187617,-0.08173 -0.396485,-0.203125 C 11.000058,95.474266 10.487133,94.547163 9.8515625,92.78125 L 9.8183594,92.6875 9.7675781,92.601562 C 8.7432232,90.820638 7.4938127,89.577111 5.9199219,89.320312 4.4323878,89.077605 3.1351245,89.42123 1.9121094,90.332031 c -1.24743122,0.907257 -2.00994863,2.180168 -2.2792969,3.757813 -0.33273655,1.948927 0.10653469,3.696543 1.32421875,5.357422 1.17786755,1.635214 2.78170315,2.632064 4.74218745,2.947264 1.9064336,0.30651 3.863386,0.22522 5.8574223,-0.23242 2.056182,-0.44723 4.162809,-1.48947 6.277343,-3.06836 l 0.0059,-0.0039 0.0059,-0.0039 c 1.367188,-1.046545 2.888724,-2.913509 4.511719,-5.484375 1.212343,-1.909932 2.164558,-4.411315 2.880859,-7.435546 0.720047,-3.055649 1.308736,-7.337837 1.800781,-12.863282 l 0.002,-0.01172 v -0.01172 c 0.06292,-0.945381 0.126108,-1.89088 0.189453,-2.835938 0.126519,-1.297711 0.252715,-2.594955 0.378906,-3.892578 l 0.002,-0.01758 v -0.01953 c 0.08059,-1.252254 0.160696,-2.503729 0.242188,-3.75586 l 0.002,-0.02344 c 4.67e-4,-0.0072 0.0015,-0.01431 0.002,-0.02148 0.130668,-1.231259 0.262477,-2.461617 0.392578,-3.69336 l 0.0039,-0.02344 v -0.02344 c 0.101892,-1.594222 0.20326,-3.187734 0.306641,-4.78125 v -0.0078 c 4.23e-4,-0.0065 0.0015,-0.01301 0.002,-0.01953 l 0.275391,-3.052734 c 0.211385,-2.354254 0.316749,-3.82541 0.304687,-4.445312 v 0.04102 c 0.009,-0.539499 1.053301,-12.264301 1.271484,-14.677734 8.13e-4,-0.009 0.0103,-0.08585 0.01172,-0.09961 0.252633,0.01205 0.535211,0.03263 0.916016,0.0918 l -0.0293,-0.0059 c 0.518724,0.09443 1.477785,0.126519 2.816406,0.117187 l 0.96875,-0.0078 0.144531,-0.958984 c 0.100253,-0.666901 0.167229,-1.2092 0.191407,-1.5625 0.02264,-0.33081 0.03674,-0.796602 0.04102,-1.382813 l 0.0059,-0.802734 -0.757813,-0.271485 c -0.584408,-0.210084 -1.118824,-0.371911 -1.476562,-0.4375 -0.327256,-0.06 -0.750876,-0.08762 -1.220703,-0.09375 h 0.03125 c -2.077807,-0.0854 -3.974326,-0.286605 -5.683594,-0.599609 -2.029794,-0.3717 -3.603435,-0.733942 -4.75586,-1.089844 l 0.02148,0.0078 c -1.260953,-0.41631 -2.774501,-0.785581 -4.519531,-1.105469 z m 75.027343,0.685547 c -0.389236,0.0027 -0.788582,0.209324 -1.132812,0.386718 -0.535525,0.274767 -1.055737,0.535648 -1.564453,0.78125 -0.168036,0.07074 -0.334254,0.139446 -0.5,0.207032 l -0.02539,0.01172 -0.02344,0.0098 c -0.843452,0.390722 -1.181641,0.460938 -1.181641,0.460938 l 0.101563,0.01367 c -0.473099,-0.08799 -0.969116,-0.06991 -1.464844,0.216797 l -0.46875,0.273438 -0.417969,2.697265 0.177734,0.333985 c 0.288999,0.539081 0.744528,0.923774 1.31836,1.140625 0.0035,0.0092 0.0079,0.01773 0.01172,0.0293 0.0063,0.01896 0.01279,0.04123 0.01953,0.06641 0.01701,0.06355 0.03288,0.143962 0.04687,0.244141 v 0.0059 l 0.002,0.0059 c 0.112157,0.752681 -0.626799,11.843482 -0.978516,15.898438 -0.148068,1.330123 -0.300036,2.661627 -0.453125,3.992187 l -0.002,0.01953 -0.002,0.02148 c -0.02464,0.314653 -0.0497,0.628763 -0.07422,0.943359 -0.920812,-0.825581 -1.875819,-1.470882 -2.908203,-1.865234 l -0.02148,-0.0098 -0.02344,-0.0059 C 80.931118,50.021173 80.468886,49.902362 79.994141,49.818359 79.365418,49.707112 78.725607,49.59993 78.076172,49.498047 l -0.05859,-0.0078 -0.05859,-0.0039 c -1.99554,-0.102729 -3.722339,0.0053 -5.007812,0.298828 C 71.677887,50.084829 70.337275,50.666735 69,51.517578 l -0.02344,0.01563 -0.02148,0.01563 c -2.234407,1.580384 -3.882708,3.440161 -4.943359,5.541016 -2.77e-4,5.32e-4 2.77e-4,0.0014 0,0.002 -1.415191,2.721684 -1.615334,5.640392 -1.269532,8.595703 0.350537,2.995763 1.044241,5.70394 1.652344,8.134766 0.105697,0.415192 0.213575,0.81935 0.31836,1.21289 l 0.01172,0.04687 0.01563,0.04297 c 0.691127,1.935545 1.610169,3.800749 2.757813,5.394531 1.102734,1.554682 2.662592,2.466752 5.003906,2.822266 1.065955,0.161859 2.140084,0.186811 3.197266,0.05859 l -0.103516,0.0078 c 0.324472,-0.0096 0.641548,-0.02871 0.951172,-0.05664 h 0.0098 l 0.0078,-0.002 c 1.701327,-0.179525 3.561821,-0.684448 5.501953,-1.513672 -0.0264,0.432656 -0.04916,0.847461 -0.09961,1.447266 -0.0066,0.07884 -0.04235,0.347217 -0.107422,0.791016 l -0.154297,1.046875 1.033203,0.224609 c 0.420172,0.09148 0.819438,0.15394 1.181641,0.181641 0.553455,0.04233 1.374223,-0.22032 2.1875,-0.587891 l -0.02734,0.01172 c 1.511307,-0.634181 3.932086,-1.060201 7.439453,-1.507813 1.210409,-0.138964 2.359963,-0.3626 3.441406,-0.666015 l 0.578125,-0.16211 0.191407,-0.570312 c 0.163561,-0.489701 0.285765,-1.074496 0.265625,-1.445313 -0.0168,-0.309209 -0.151943,-0.772605 -0.304688,-1.167968 L 97.466797,78.851562 96.855469,78.728516 C 96.35119,78.627305 95.792024,78.574239 95.195312,78.560547 h 0.0293 c -1.175162,-0.0577 -1.82394,-0.164678 -2.259765,-0.269531 -0.03465,-0.875545 -0.06753,-1.747461 -0.07227,-2.416016 l -0.01953,-2.822266 c -0.0027,-0.375409 -0.01974,-0.785755 -0.04687,-1.228515 l 0.002,0.01172 c -0.05268,-1.034951 -0.08215,-2.191778 -0.08984,-3.484375 -0.0075,-1.267473 0.0081,-2.246756 0.04492,-2.943359 v -0.01172 -0.0098 c 0.009,-0.262691 0.01847,-0.526801 0.02734,-0.791016 l 0.002,-0.02148 -0.01758,-2.142578 -0.0039,-0.05078 c -0.0662,-0.686549 -0.0957,-1.186411 -0.09766,-1.515625 -0.0011,-0.181061 0.0059,-0.448238 0.02344,-0.845703 l 0.002,-0.0293 -0.0098,-1.460937 -0.002,-0.04102 c -0.01933,-0.246153 -0.03126,-0.530523 -0.0332,-0.857422 -0.01278,-2.147369 -0.0043,-3.716454 0.02539,-4.699218 v -0.0078 -0.0078 c 0.01336,-0.764885 0.02683,-1.53092 0.03906,-2.296875 l 0.002,-0.01563 -0.002,-0.01758 c -0.05694,-4.027753 -0.108459,-8.056133 -0.15625,-12.083984 l 0.002,0.01953 c 0.0035,-0.627248 0.0068,-1.255362 0.0098,-1.882812 v -0.01758 l -0.002,-0.01758 c -0.0097,-0.364335 -0.01997,-0.727245 -0.0293,-1.089844 l 0.002,0.02148 -0.01563,-2.039062 v -0.0059 c -0.05909,-2.987053 -0.08453,-4.942661 -0.08789,-5.589843 l -0.0039,-0.677735 c 0.0048,-0.175331 0.0091,-0.35124 0.01367,-0.529297 l 0.002,-0.01758 v -0.01758 c -0.0017,-0.3046 -0.04875,-0.771032 -0.121094,-1.308594 l -0.08984,-0.667968 -0.628907,-0.240235 c -0.153324,-0.05863 -0.465296,-0.150003 -0.6875,-0.148437 z m 22.140628,24.257812 c -1.13552,-0.02611 -2.43339,0.100883 -3.88477,0.369141 -0.70486,0.130279 -1.49396,0.42417 -2.33398,0.83789 -0.009,0.0041 -0.0199,0.0095 -0.0293,0.01367 -0.007,0.0037 -0.014,0.0061 -0.0215,0.0098 -0.32022,0.142064 -0.64938,0.301639 -0.9961,0.480469 -1.11978,0.587607 -2.234,1.592685 -3.40039,2.935547 -1.18111,1.382017 -2.23337,3.203923 -3.195311,5.40039 -0.398844,0.865664 -0.758504,2.455902 -1.128906,4.642578 l -0.0098,0.04883 -0.0039,0.04883 c -0.150923,1.841168 -0.143928,3.886557 0.03906,6.117187 0.105545,1.286577 0.558175,2.950433 1.326172,4.859375 0.617314,1.539499 1.491464,2.999619 2.634764,4.382813 1.15937,1.402648 2.51287,2.537045 4.05274,3.388671 1.53335,0.848033 3.19941,1.39077 4.97265,1.63086 0.002,2.69e-4 0.004,-2.68e-4 0.006,0 0.003,3.61e-4 0.005,0.0016 0.008,0.002 0.40699,0.05872 0.83589,0.09348 1.28321,0.105469 l 0.0156,0.002 h 0.0137 c 1.03546,0.0017 2.20554,-0.123086 3.49805,-0.363281 2.76791,-0.514377 5.20134,-1.549485 7.24414,-3.123047 2.05311,-1.598164 3.81745,-3.851827 5.27344,-6.701172 l 0.46289,-0.904297 -0.84961,-0.558594 c -0.67074,-0.440914 -1.48135,-0.914573 -2.41406,-1.417969 l -0.81446,-0.439453 -0.59375,0.710938 c -0.90542,1.083254 -1.6608,1.827114 -2.30468,2.308594 -0.001,9.46e-4 -0.003,0.003 -0.004,0.0039 -0.62832,0.453286 -1.40362,0.888651 -2.33789,1.300781 -0.41875,0.175122 -1.3917,0.410905 -2.92578,0.701172 -0.60329,-0.104218 -1.20598,-0.207816 -1.80664,-0.3125 -0.002,-3.49e-4 -0.004,-0.0016 -0.006,-0.002 -0.78002,-0.149425 -1.60581,-0.490175 -2.47266,-1.054688 -0.001,-8.55e-4 -0.003,-0.0011 -0.004,-0.002 -0.19064,-0.128389 -0.37558,-0.264544 -0.55274,-0.40625 -0.62797,-0.507854 -1.2024,-1.111549 -1.71679,-1.8125 l -0.002,-0.002 c -0.001,-0.0019 -0.002,-0.0039 -0.004,-0.0059 -0.67287,-0.938222 -1.23965,-2.059176 -1.69922,-3.376953 -0.444,-1.286338 -0.73753,-2.512744 -0.91797,-3.685547 0.54906,-0.06919 1.09949,-0.135076 1.64648,-0.208985 l -0.31836,-2.24414 c -0.091,0.01354 0.34571,-0.05078 0.34571,-0.05078 l 0.38476,2.234375 c 1.87922,-0.370898 2.90343,-0.571374 3.01367,-0.591796 0.41925,-0.07767 1.21526,-0.178294 2.43555,-0.302735 l 0.008,-0.002 h 0.008 c 3.27835,-0.378395 5.42386,-0.657849 6.43359,-0.84375 l 0.0234,-0.0039 c 1.15526,-0.188673 2.31109,-0.377647 3.46679,-0.566406 l 1.20508,-0.197266 -0.28711,-1.1875 c -0.47162,-1.951041 -1.10682,-3.626456 -1.91015,-4.984375 l -0.002,-0.0039 c -0.76161,-1.323746 -1.63053,-2.462803 -2.61132,-3.402344 -0.97211,-0.931221 -2.15784,-1.789719 -3.53321,-2.580078 -1.06627,-0.608643 -2.28325,-0.974292 -3.6289,-1.121094 h -0.006 c -0.3437,-0.0433 -0.70246,-0.06762 -1.07422,-0.07617 z m -65.320315,4.308594 c -0.697609,-0.0069 -1.372139,0.07546 -2.013672,0.222656 l -0.03906,0.0098 -0.03711,0.01172 c -0.03179,0.0097 -0.05584,0.01683 -0.06445,0.01953 -1.80967,0.568245 -3.429962,1.253277 -4.900391,2.263672 l -0.01172,0.0078 -0.01172,0.0098 c -1.066585,0.775734 -2.233009,1.955207 -3.576172,3.466797 -1.267809,1.420856 -2.370778,2.848312 -3.21875,4.335937 l 0.03711,-0.06445 c -0.05617,0.08515 -0.112385,0.174793 -0.169921,0.267578 l -0.0078,0.01172 -0.0078,0.01367 c -0.656349,1.121549 -1.012211,2.482206 -1.105469,4.027344 -0.04663,0.772598 0.109923,1.486488 0.599609,2.109375 l 0.269531,0.34375 0.431641,0.07227 c 0.216203,0.03671 0.435987,0.053 0.65625,0.05078 l 0.117188,-0.002 0.115234,-0.02539 c 0.779204,-0.172293 1.728657,-0.605805 2.701172,-1.214844 l 0.0078,-0.0039 0.0059,-0.0059 c 0.276647,-0.179073 0.789911,-0.460534 1.61914,-0.916015 l 0.0078,-0.0039 0.0078,-0.0039 c 0.925998,-0.525665 1.671188,-1.159853 2.089844,-1.894531 0.275984,-0.467581 0.370673,-1.328595 0.447266,-2.435547 0.110547,-1.51585 0.250196,-2.415039 0.417968,-2.869141 0.218388,-0.594264 0.596091,-1.135952 1.13086,-1.61914 0.519915,-0.469763 1.077549,-0.762673 1.664062,-0.900391 0.40111,-0.09418 0.525064,-0.0506 0.773438,0.265625 0.131903,0.166609 0.277322,0.38728 0.439453,0.675781 0.60982,1.090388 1.313729,2.878643 2.007812,5.388672 0.19397,0.701458 0.349465,1.395259 0.501954,2.089844 -2.156944,1.699538 -4.564533,3.264339 -7.140625,4.714844 l -0.01172,0.0078 -0.01172,0.0059 c -1.473365,0.878325 -2.348454,1.353448 -2.703125,1.589843 -1.729773,1.171443 -3.096626,2.204988 -4.029297,3.1875 -0.676897,0.713673 -1.252944,1.442448 -1.705078,2.189454 l -0.0039,0.0078 -0.0039,0.0059 c -0.117188,0.199519 -0.225249,0.403476 -0.324219,0.613282 l -0.0059,0.01367 -0.0059,0.01172 c -0.4027,0.910303 -0.639869,1.847863 -0.697266,2.8125 -0.07918,1.330693 0.115509,2.565424 0.626954,3.710938 l 0.03125,0.07031 0.04102,0.06641 c 0.3456,0.554435 0.787955,1.042193 1.326172,1.46875 l 0.0059,0.0039 0.0059,0.0039 c 1.626611,1.257375 4.171538,1.70734 7.421875,1.404297 3.522102,-0.328381 6.641589,-1.273442 9.058594,-2.738281 l 0.0039,-0.002 0.0039,-0.002 c 1.445876,-0.89396 2.644205,-1.970889 3.546875,-3.220703 l 0.0098,-0.01367 0.0098,-0.01563 c 0.24211,-0.357651 0.435388,-0.729469 0.623047,-1.103515 1.18977,1.093166 2.380916,1.856475 3.507813,2.248047 l 0.01563,0.0059 0.01367,0.0039 c 1.529936,0.487618 3.071214,0.469028 4.433593,-0.01367 0.689126,-0.244161 1.267758,-0.586475 1.738282,-1.080078 l 0.115234,-0.121093 0.07422,-0.146485 c 0.221032,-0.432595 0.32671,-0.941743 0.376953,-1.453125 v -0.0059 -0.0059 c 0.08813,-1.002876 -0.05154,-2.726241 -0.296875,-4.949218 l -0.01172,-0.113282 -0.03516,-0.109375 c -0.02045,-0.06359 -0.04203,-0.124492 -0.06055,-0.18164 -0.115184,-0.355474 -0.297216,-0.719451 -0.591797,-1.021485 l -0.0332,-0.0332 -0.0332,-0.03125 c -0.188444,-0.164313 -0.382365,-0.321763 -0.578125,-0.476562 l -0.923828,-0.732422 -0.695313,0.953125 c -0.08306,0.113928 -0.1716,0.235442 -0.257812,0.357422 l -0.177735,0.251953 c -0.0064,-0.01821 -0.0091,-0.02236 -0.01563,-0.04102 l -0.386718,-1.111328 -0.0039,-0.0078 C 60.37907,72.123297 59.861961,70.704255 59.34375,69.285156 58.687415,67.317671 58.031669,65.349211 57.376953,63.380859 l -0.0039,-0.0078 -0.002,-0.0098 C 56.109679,59.75461 54.94485,57.2017 53.900391,55.859375 l -0.0039,-0.0039 c -1.09023,-1.43149 -2.447672,-2.293642 -3.998047,-2.689453 -0.72458,-0.200707 -1.436464,-0.299714 -2.132812,-0.306641 z m 2.132812,0.306641 c 0.0039,0.0011 0.0078,8.66e-4 0.01172,0.002 l -0.02734,-0.0078 c 0.0054,0.0014 0.0102,0.0045 0.01563,0.0059 z M 41.267578,65.96875 c -0.0029,0.005 -0.0048,0.01271 -0.0078,0.01758 l 0.01953,-0.03516 c -0.0034,0.006 -0.0083,0.0116 -0.01172,0.01758 z M 111.01172,53.349609 c 0.47161,0.0069 1.02147,0.155075 1.6582,0.501953 l 0.01,0.0039 0.008,0.0039 c 0.77988,0.407671 1.47672,1.095376 2.05078,2.113281 0.41905,0.742982 0.72814,1.550297 0.98438,2.384766 -0.28854,0.07084 -0.57067,0.137709 -1,0.273437 -0.7738,0.215434 -1.36506,0.360485 -1.75977,0.433594 -1.38796,0.249505 -2.77525,0.500652 -4.16211,0.75 -6.4e-4,8.3e-5 -0.001,-8.3e-5 -0.002,0 -0.54307,0.07031 -1.08707,0.133685 -1.63086,0.199219 -0.0151,-1.80746 0.29258,-3.271714 0.89062,-4.388672 0.21035,-0.392856 0.42461,-0.718275 0.64454,-0.988281 l 0.008,-0.0098 0.008,-0.01172 c 0.56944,-0.731893 1.18987,-1.105868 1.83203,-1.224609 0.15441,-0.02855 0.30744,-0.04327 0.46094,-0.04102 z m -32.759767,1.548828 c 0.39494,-0.01879 0.789561,0.0077 1.185547,0.07813 0.253786,0.04516 0.488615,0.102706 0.707031,0.173829 0.758336,0.277436 1.441719,0.819875 2.033203,1.701171 0.719315,1.071763 1.179672,2.584032 1.226563,4.617188 0.03468,1.476083 -0.27468,6.354954 -0.949219,14.201172 -0.0086,0.09991 -0.06042,0.544688 -0.0957,0.859375 -0.853472,0.396813 -1.67955,0.703605 -2.455078,0.875 -0.892667,0.205122 -1.702814,0.241225 -2.419922,0.134765 -0.267056,-0.03965 -0.588918,-0.103713 -0.960938,-0.191406 l -0.01172,-0.0039 c -0.0053,-0.0012 -0.0084,-7e-4 -0.01367,-0.002 -0.05838,-0.01531 -0.113123,-0.02961 -0.167969,-0.04492 -1.646954,-0.518388 -2.776518,-1.710884 -3.601562,-3.761719 -0.820838,-2.069293 -1.185572,-5.14394 -0.847657,-9.070312 0.136541,-1.58652 0.523895,-3.285546 1.240235,-5.076172 0.501062,-1.23543 1.181762,-2.288656 2.050781,-3.177735 0.510956,-0.527304 1.145829,-0.904747 1.890625,-1.11914 0.399262,-0.109748 0.796908,-0.174685 1.189453,-0.19336 z M 49.984375,71.380859 c 0.172463,0.53019 0.36565,1.056504 0.513672,1.591797 0.791612,2.86272 1.098546,4.509816 1.05664,4.933594 -0.0082,0.06284 -0.04451,0.196672 -0.167968,0.439453 -0.0016,0.0032 -3.03e-4,0.0026 -0.002,0.0059 -0.262601,0.481572 -0.752434,1.125238 -1.583985,1.972657 -0.77356,0.796752 -1.888367,1.350392 -3.326172,1.564453 -0.69393,0.103313 -1.313744,-0.05396 -1.86914,-0.470703 -0.485618,-0.364384 -0.791791,-0.931967 -0.847657,-1.685547 -0.07457,-1.005859 0.09045,-1.833249 0.423829,-2.503906 l 0.0039,-0.0059 c 8.95e-4,-0.0018 0.0011,-0.0041 0.002,-0.0059 0.545368,-1.05176 1.536255,-2.164909 3.056641,-3.523438 1.03501,-0.931863 1.915297,-1.668924 2.740234,-2.3125 z"
       id="path3"
       style="font-weight:bold;font-size:42.6667px;font-family:Garamond;-inkscape-font-specification:'Garamond Bold';letter-spacing:0px;white-space:pre;fill:#ffffff;stroke-width:1.59449;fill-opacity:1"
       aria-label="&#10;Jade"
       sodipodi:nodetypes="ccscsscscccccccccccccccscscscccscsccccccccccscscscccccccscccscscccccscssccccccscccscccccscscccsccsssccssscccsccccccccccccscccsccccccsccscccscsscccscccscscccsccscccsccscsscccscccccccsccsccccsccsccccccccccscsscscccccsscccsc"
       inkscape:path-effect="#path-effect5;#path-effect6"
       inkscape:original-d="m 8.6035151,88.104738 c 0.8791888,1.557009 1.6594689,2.546825 2.3408409,2.96945 0.373655,0.155697 0.670381,0.233545 0.890178,0.233545 0.505535,0 0.93414,-0.266916 1.285816,-0.800747 0.505533,-0.75626 0.758299,-2.001874 0.758299,-3.736841 v -1.968497 c 0,-1.201124 0.04396,-2.346644 0.131873,-3.436559 0.04396,-0.622802 0.06594,-1.145515 0.06594,-1.568139 0,-0.200188 -0.02198,-0.956448 -0.06594,-2.268779 l 0.03297,-2.502342 -0.09892,-12.511722 c 0,-0.667291 -0.01098,-1.201123 -0.03295,-1.601497 -0.06595,-0.889723 -0.09892,-1.74608 -0.09892,-2.569072 l 0.03295,-7.240114 -0.164846,-6.139081 -0.164848,-11.521874 c 0,-1.645986 -0.01098,-2.680288 -0.03295,-3.102907 C 12.999453,30.228348 11.51582,30.050404 9.0321101,29.80573 H 8.2408461 L 7.3836369,29.705638 C 7.2517581,29.683398 7.0429507,29.650034 6.7572146,29.605546 L 6.59237,26.736191 c 2.1540131,0 4.00031,0.07785 5.53889,0.233551 1.538582,0.133459 3.593687,0.200188 6.165315,0.200188 2.219953,0 4.648712,-0.133458 7.286278,-0.400375 0.549494,-0.06673 0.978099,-0.100089 1.285816,-0.100089 0.373655,0 0.923148,0.04448 1.64848,0.133453 0.04396,0.511589 0.06594,0.900843 0.06594,1.16776 0,0.28916 -0.03297,0.734021 -0.09892,1.334583 -1.6265,0.222431 -2.692517,0.333646 -3.19805,0.333646 -1.164925,0.02224 -2.022135,0.122334 -2.571628,0.300282 -0.02197,0.533831 -0.03296,0.856355 -0.03296,0.967572 0,2.157576 0.02198,12.789728 0.06594,13.256831 0.06595,0.467105 0.09892,1.757202 0.09892,3.870291 v 2.769261 l 0.131872,4.30403 -0.06594,3.369821 0.09892,3.403187 -0.03295,3.50328 0.06594,2.569072 c 0,4.937957 -0.208808,8.774882 -0.626424,11.510776 -0.417615,2.713653 -1.077006,4.937957 -1.978175,6.672913 -1.274824,2.468977 -2.42876,4.203934 -3.461807,5.204871 -1.714419,1.623748 -3.395868,2.747023 -5.044348,3.369824 -1.648479,0.645051 -3.2859689,0.967577 -4.9124691,0.967577 -1.5385805,0 -2.868354,-0.544958 -3.9893205,-1.634873 C 1.8887438,92.953718 1.317271,91.685865 1.317271,90.240064 c 0,-1.178873 0.4066249,-2.157565 1.2198747,-2.936074 0.7912705,-0.778511 1.7363986,-1.167766 2.8353843,-1.167766 1.0550275,0 2.1320345,0.656171 3.231021,1.968514 z M 57.958994,73.12405 l 0.758301,0.500468 c 0.197818,0.155698 0.318707,0.34476 0.362666,0.567187 l 0.03295,0.166828 c -0.527513,1.979633 -1.219875,3.34758 -2.077084,4.10384 -0.857209,0.73402 -1.923226,1.10103 -3.19805,1.10103 -1.296805,0 -2.417771,-0.35589 -3.3629,-1.067671 -0.923148,-0.73402 -1.769368,-2.012992 -2.538659,-3.836917 -0.945128,1.690467 -2.274901,2.969439 -3.989319,3.836917 -1.714419,0.845238 -3.813483,1.267857 -6.297192,1.267857 -2.285893,0 -3.967342,-0.478223 -5.044348,-1.434669 -1.077007,-0.978697 -1.615511,-2.257675 -1.615511,-3.836934 0,-0.73402 0.153858,-1.47916 0.461575,-2.235419 0.329695,-0.756271 0.846219,-1.501417 1.549571,-2.235436 0.725331,-0.756259 1.879267,-1.57925 3.461807,-2.468972 0.241777,-0.133458 1.077007,-0.51159 2.505688,-1.134395 l 8.20943,-3.336458 c 0.06595,-0.845235 0.09892,-1.701593 0.09892,-2.569073 0,-3.002811 -0.362665,-5.049171 -1.087996,-6.13908 -0.439595,-0.667291 -1.208885,-1.000937 -2.307872,-1.000937 -1.098987,0 -2.110054,0.211309 -3.033203,0.633926 -0.923147,0.422619 -1.593529,0.967573 -2.011145,1.634864 -0.307716,0.489347 -0.571472,1.412433 -0.791269,2.769259 -0.153859,0.978695 -0.296727,1.545893 -0.428606,1.701594 -0.329695,0.422618 -0.934138,0.811871 -1.813327,1.16776 -0.85721,0.333646 -1.439673,0.578319 -1.747389,0.73402 -1.186905,0.578319 -2.132033,0.867479 -2.835384,0.867479 -0.307716,-0.266916 -0.461574,-0.645048 -0.461574,-1.134395 0,-1.267854 0.263757,-2.357763 0.79127,-3.269728 0.791271,-1.290097 1.978176,-2.535707 3.560717,-3.736832 1.604519,-1.223368 3.09914,-2.079726 4.483862,-2.569073 1.890258,-0.622805 4.19813,-0.934208 6.923616,-0.934208 1.758377,0 3.263988,0.333646 4.516833,1.000938 1.274824,0.645048 2.154013,1.612621 2.637568,2.902718 0.505534,1.290097 0.758301,3.614495 0.758301,6.973195 l -0.09892,5.505157 0.06594,4.037114 v 1.034297 c 0,0.934207 0.120889,1.579258 0.362666,1.935153 0.263757,0.333647 0.593452,0.50047 0.989087,0.50047 0.241777,0 0.450585,-0.06673 0.626422,-0.200188 l 0.989088,-1.568139 z M 47.144969,65.383462 c -1.252846,0.422618 -2.670539,1.134395 -4.253079,2.135332 -1.560561,0.978694 -2.648557,1.96851 -3.263989,2.969447 -0.439595,0.734019 -0.659393,1.634862 -0.659393,2.702528 0,0.956457 0.285737,1.746086 0.857212,2.368889 0.571473,0.622801 1.230864,0.934201 1.978174,0.934201 1.230865,0 2.274902,-0.355885 3.132112,-1.067655 1.164925,-0.956457 1.846297,-1.712723 2.044114,-2.268796 0.197817,-0.578321 0.296726,-2.190943 0.296726,-4.837864 0,-0.978693 -0.04396,-1.957387 -0.131873,-2.936082 z M 68.50926,53.805954 c 1.077007,-0.756264 2.110054,-1.301219 3.099143,-1.634864 1.011067,-0.333645 2.42876,-0.58944 4.253077,-0.767384 h 1.846298 c 2.395791,0 4.692672,0.834114 6.890644,2.502343 l 0.06594,-0.80075 -0.03295,-2.235427 0.131874,-3.570009 c 0,-3.759075 -0.285736,-13.387824 -0.857209,-14.388761 -0.329697,-0.600563 -0.91216,-0.923087 -1.747389,-0.967574 -0.813249,-0.04449 -1.472641,-0.189073 -1.978175,-0.433739 V 29.90829 c 0.417614,-0.133459 0.956117,-0.200188 1.61551,-0.200188 0.659391,-0.02224 1.945205,-0.255792 3.857442,-0.700656 l 1.120965,-0.233553 3.263991,-0.767384 c 0.659391,-0.155701 1.066015,-0.233552 1.219874,-0.233552 0.109899,0 0.285736,0.02225 0.527513,0.06674 0.13188,0.467104 0.19782,0.811871 0.19782,1.034301 l -0.03297,0.500469 v 0.600562 c 0,0.622806 0.03297,2.279913 0.09892,4.971321 v 1.801687 l 0.03296,0.967573 -0.03296,1.668229 0.09892,10.718657 -0.06594,2.035241 c -0.04396,0.889721 -0.06594,2.291033 -0.06594,4.203936 0,0.311403 0.01099,0.58944 0.03297,0.834112 v 1.23449 c -0.02198,0.355889 -0.03297,0.622805 -0.03297,0.80075 0,0.333647 0.03297,0.811872 0.09892,1.434677 v 1.835052 l -0.03296,0.700654 c -0.04396,0.645049 -0.06594,1.534771 -0.06594,2.669166 0,1.156639 0.02198,2.202063 0.06594,3.136271 0.02197,0.378135 0.03296,0.722901 0.03296,1.034296 v 2.502342 c 0,0.800759 0.02198,1.757211 0.06594,2.869356 0.395635,0.244677 1.362742,0.422624 2.901319,0.533842 0.48356,0.02221 0.912164,0.07781 1.285813,0.166813 0.109903,0.333645 0.164855,0.578322 0.164855,0.73403 0,0.200188 -0.07693,0.500469 -0.230786,0.900843 -0.90117,0.222427 -1.846299,0.389249 -2.835387,0.500468 -3.011223,0.378125 -5.154247,0.911958 -6.42907,1.6015 -0.615433,0.355884 -1.044037,0.533826 -1.285813,0.533826 -0.241778,0 -0.516525,-0.02226 -0.824241,-0.06678 0.02197,-0.400385 0.03296,-0.656181 0.03296,-0.767389 0,-1.51253 -0.03297,-2.480102 -0.09892,-2.902716 -0.329697,0.177937 -0.736322,0.411488 -1.219875,0.700655 -1.472641,0.889717 -2.813405,1.512519 -4.02229,1.868405 -1.208885,0.333645 -2.593608,0.500468 -4.154169,0.500468 -2.769445,0 -4.978408,-0.533833 -6.626889,-1.601499 -2.439749,-1.557009 -4.132188,-3.425423 -5.077315,-5.605244 -0.92315,-2.179817 -1.384725,-4.570944 -1.384725,-7.17338 0,-4.493097 2.044115,-8.330023 6.132344,-11.510779 z m 10.154636,22.087343 c 0.461574,0.04452 0.857209,0.06678 1.186905,0.06678 0.725331,0 1.494622,-0.155703 2.307871,-0.467109 0.83523,-0.311395 1.714419,-0.767373 2.637568,-1.367935 0.02199,-0.734021 0.03298,-1.190005 0.03298,-1.367953 0,-7.051047 -0.09891,-11.29947 -0.296727,-12.745269 -0.263756,-1.935145 -0.989087,-3.425429 -2.175993,-4.470854 -1.186905,-1.045422 -2.626577,-1.568133 -4.319017,-1.568133 -0.967107,0 -1.890256,0.177944 -2.769445,0.533833 -0.85721,0.355888 -1.560562,0.867478 -2.110055,1.534771 -0.81325,0.978693 -1.428682,2.090845 -1.846297,3.336455 -0.571472,1.734959 -0.857208,3.358701 -0.857208,4.871228 0,3.625617 0.7583,6.405998 2.2749,8.341142 1.516601,1.912904 3.494777,3.013934 5.934527,3.30309 z M 99.92929,61.713359 c 0.57147,-1.890659 1.077,-3.147392 1.5166,-3.770197 1.23087,-1.82393 2.53866,-3.247485 3.92338,-4.270666 1.40671,-1.02318 2.67054,-1.701593 3.7915,-2.035238 1.45066,-0.422618 2.62658,-0.633927 3.52776,-0.633927 2.06609,0 3.73654,0.166823 5.01137,0.500468 1.27482,0.311403 2.34083,0.767386 3.19804,1.367948 1.23087,0.867478 2.21996,1.746078 2.96727,2.635801 0.74731,0.889722 1.35176,1.935145 1.81333,3.13627 0.48355,1.201125 0.74731,2.658046 0.79127,4.370761 l -3.65962,-0.06674 c -1.01107,0 -3.23102,-0.100094 -6.65987,-0.300282 -1.27482,-0.08897 -2.15401,-0.133452 -2.63756,-0.133452 -0.15387,0 -1.34077,0.01112 -3.56072,0.03336 h -2.83538 c -0.044,0.311403 -0.066,0.578319 -0.066,0.80075 0,1.178881 0.14287,2.424491 0.4286,3.736832 0.28575,1.290096 0.71435,2.435611 1.28582,3.436544 0.57148,0.978697 1.27483,1.823935 2.11005,2.535716 0.85721,0.711781 1.7364,1.223369 2.63757,1.534765 l 1.91225,0.633937 c 1.69243,0 2.82439,-0.05561 3.39586,-0.166829 1.05503,-0.222426 1.97818,-0.500462 2.76944,-0.834107 0.81325,-0.355896 1.79135,-0.945338 2.93431,-1.768327 0.79126,0.578323 1.45065,1.101036 1.97816,1.568139 -1.93422,2.157571 -3.94536,3.725704 -6.03343,4.704401 -2.06609,0.956447 -4.38496,1.43467 -6.95659,1.43467 -1.73639,0 -3.15408,-0.155703 -4.25307,-0.467109 -1.47265,-0.400375 -2.80242,-1.012056 -3.98932,-1.835045 -1.18691,-0.822988 -2.20897,-1.846169 -3.06618,-3.069544 -0.85721,-1.223363 -1.49462,-2.480096 -1.91223,-3.770199 -0.549495,-1.690467 -0.824242,-3.04729 -0.824242,-4.07047 0,-1.935147 0.153857,-3.681227 0.461571,-5.23824 z m 19.15533,-1.434676 c -0.0219,-1.245612 -0.26371,-2.435615 -0.72533,-3.570009 -0.46157,-1.134397 -1.17592,-2.012998 -2.14303,-2.635803 -0.9671,-0.645048 -1.9452,-0.967572 -2.9343,-0.967572 -1.47263,0 -2.8024,0.656169 -3.9893,1.968508 -1.18691,1.312341 -1.8573,3.091786 -2.01115,5.338333 l 7.51707,0.03336 c 0.48355,0 1.16492,-0.03336 2.04411,-0.100089 0.63741,-0.06673 1.088,-0.100089 1.35175,-0.100089 0.19782,0 0.49455,0.01112 0.89018,0.03336 z" />
    <path
       d="m 8.7855545,93.166198 c 0.6740654,1.872871 1.3514045,3.103879 2.0100965,3.688559 0.372811,0.236601 0.676329,0.373821 0.909475,0.411555 0.536239,0.08679 1.02938,-0.135454 1.475949,-0.667063 0.641289,-0.752919 1.075569,-2.089061 1.31305,-4.014323 l 0.269287,-2.183118 c 0.164287,-1.331877 0.366481,-2.595265 0.604604,-3.789126 0.129653,-0.683162 0.223045,-1.259648 0.28049,-1.728178 0.02753,-0.224522 0.107407,-1.06199 0.242312,-2.527274 0.124688,-0.923274 0.249262,-1.846559 0.373723,-2.769855 0.534932,-4.631003 1.071562,-9.261841 1.609889,-13.892513 0.09108,-0.739868 0.153673,-1.334063 0.187817,-1.781402 0.05988,-0.997148 0.146791,-1.952287 0.259585,-2.864879 0.340961,-2.674692 0.681595,-5.349415 1.021902,-8.024171 0.23102,-2.277989 0.463428,-4.555843 0.697224,-6.833562 0.480709,-4.267465 0.964022,-8.534676 1.449941,-12.801633 0.227488,-1.824117 0.361803,-2.974836 0.402417,-3.445608 -0.37671,-0.194745 -1.552442,-0.609921 -3.521054,-1.246135 l -0.639096,-0.116299 c -0.225449,-0.07892 -0.45078,-0.157835 -0.675993,-0.236735 -0.102912,-0.04402 -0.26582,-0.111542 -0.489073,-0.202764 0.11453,-1.066068 0.229708,-2.132073 0.345535,-3.198014 1.712339,0.313895 3.167892,0.669196 4.370131,1.06612 1.205674,0.372347 2.834433,0.746199 4.883983,1.121517 1.768892,0.323922 3.72038,0.530123 5.841533,0.617304 0.442859,0.0058 0.78624,0.03105 1.030822,0.0759 0.297048,0.05446 0.729878,0.184064 1.299972,0.389002 -0.0042,0.577056 -0.01627,1.01372 -0.03665,1.311586 -0.02203,0.322002 -0.08238,0.813959 -0.181519,1.473451 -1.327594,0.0093 -2.198679,-0.02362 -2.606434,-0.09785 -0.941971,-0.146355 -1.64346,-0.160908 -2.105477,-0.04371 -0.07143,0.591172 -0.112729,0.947426 -0.123958,1.071638 -0.218184,2.413438 -1.267246,14.219628 -1.276215,14.759129 0.01028,0.528223 -0.08995,1.971753 -0.300908,4.321307 l -0.276654,3.08116 c -0.104025,1.603094 -0.207271,3.206264 -0.309739,4.80951 -0.131649,1.246393 -0.263602,2.492755 -0.39586,3.739088 -0.0825,1.267418 -0.164535,2.53488 -0.246109,3.802388 -0.12619,1.297605 -0.252538,2.595195 -0.379044,3.892769 -0.06412,0.956398 -0.128,1.912819 -0.191652,2.869262 -0.490171,5.504408 -1.071443,9.719956 -1.774517,12.703575 -0.698972,2.951062 -1.606206,5.310105 -2.734629,7.087831 -1.595651,2.527545 -3.02508,4.258616 -4.244049,5.191704 -2.02014,1.50841 -3.977662,2.463608 -5.839364,2.868538 -1.8650896,0.42962 -3.6847589,0.50242 -5.4392754,0.22034 C 4.2183243,101.00837 2.8752039,100.17501 1.8712777,98.777336 0.84327074,97.375171 0.47771848,95.878847 0.75033453,94.282062 0.97244889,92.981079 1.5861079,91.969257 2.5775972,91.248147 c 0.9691207,-0.725275 2.0191525,-0.995275 3.161501,-0.808888 1.0966559,0.178932 2.1032529,1.087045 3.0464939,2.726945 z M 62.653698,74.761407 c 0.183662,0.145232 0.362089,0.29325 0.53501,0.444028 0.142116,0.145711 0.249702,0.339363 0.327391,0.579124 0.01942,0.05993 0.03877,0.119881 0.05805,0.179847 0.244406,2.214555 0.372423,3.835787 0.294305,4.724726 -0.04329,0.440607 -0.125104,0.789989 -0.257495,1.049099 -0.321004,0.336749 -0.744601,0.600275 -1.296801,0.795922 -1.112828,0.394282 -2.401456,0.417503 -3.710343,3.38e-4 -1.288549,-0.447742 -2.766664,-1.499781 -4.284446,-3.199721 -0.249432,0.874222 -0.627918,1.706005 -1.159344,2.491043 0,0 0,0 0,0 -0.804237,1.113526 -1.885039,2.093638 -3.221814,2.920143 -2.243179,1.359492 -5.184789,2.261051 -8.577373,2.577356 -3.11405,0.290337 -5.306665,-0.154381 -6.621894,-1.171056 -0.442413,-0.350629 -0.797107,-0.744765 -1.068154,-1.179598 -0.425651,-0.953357 -0.60003,-2.013224 -0.530457,-3.182518 0.04874,-0.819121 0.250777,-1.625189 0.601852,-2.418792 0.08333,-0.176649 0.175647,-0.351161 0.276894,-0.52354 0,0 0,0 0,0 0.402416,-0.664864 0.923769,-1.3281 1.557635,-1.996404 0.85041,-0.895855 2.133616,-1.871132 3.843388,-3.029029 0.259619,-0.173014 1.166635,-0.672149 2.646674,-1.554453 2.643797,-1.488627 5.128576,-3.104163 7.359047,-4.869176 0.166271,-0.133844 0.330416,-0.268462 0.492631,-0.40379 -0.1881,-0.938327 -0.416039,-1.879027 -0.677137,-2.82324 -0.705915,-2.552814 -1.443624,-4.446516 -2.11012,-5.638243 -0.183601,-0.326711 -0.364246,-0.602641 -0.541936,-0.827084 -0.503699,-0.641318 -1.126959,-0.852289 -1.920863,-0.665874 -0.797483,0.187256 -1.50813,0.5693 -2.165411,1.163178 -0.656715,0.593372 -1.143965,1.27792 -1.435086,2.070103 -0.213766,0.578586 -0.371203,1.641315 -0.483194,3.17696 -0.0767,1.108403 -0.179096,1.757552 -0.293408,1.945109 -0.284285,0.506498 -0.836458,1.005562 -1.6738,1.4809 -0.829283,0.455511 -1.375369,0.755684 -1.689915,0.959288 -0.918337,0.57511 -1.713007,0.928602 -2.34305,1.067913 0,0 0,0 0,0 -0.162875,0.0016 -0.314723,-0.0095 -0.45546,-0.0334 -0.273045,-0.347316 -0.392189,-0.793605 -0.359227,-1.339737 0.08535,-1.414096 0.406228,-2.589269 0.952646,-3.522974 0.05007,-0.08073 0.101452,-0.161052 0.154159,-0.240949 0.796163,-1.396734 1.843267,-2.753252 3.079917,-4.139188 1.328602,-1.495201 2.425053,-2.600925 3.39676,-3.307653 1.346,-0.924895 2.851398,-1.566714 4.596901,-2.114811 0.01876,-0.0059 0.03749,-0.01168 0.05618,-0.01738 1.123602,-0.257805 2.334831,-0.281142 3.599978,0.0712 1.299165,0.328657 2.457238,1.057568 3.391073,2.28538 0.956294,1.22348 2.046207,3.598718 3.303201,7.194744 0.65475,1.968454 1.310426,3.936634 1.966912,5.904572 0.521811,1.428955 1.043186,2.858046 1.564087,4.287285 l 0.385948,1.10358 c 0.348901,0.997649 0.691888,1.647854 1.022466,1.958822 0.299242,0.246919 0.586342,0.342931 0.855633,0.291309 0.02435,-0.0023 0.04826,-0.0073 0.07173,-0.01494 0.120598,-0.03912 0.199804,-0.143312 0.241604,-0.314394 -0.0146,-0.614373 -0.01561,-1.231462 -0.002,-1.850416 0.08138,-0.115142 0.163572,-0.229704 0.246617,-0.343605 z M 50.571623,69.512181 c -0.164375,0.115037 -0.332177,0.23658 -0.504342,0.364828 -1.059222,0.761889 -2.227419,1.756647 -3.581152,2.975469 -1.559192,1.393193 -2.687213,2.644154 -3.312967,3.857343 -0.441024,0.879818 -0.634895,1.917843 -0.546829,3.105782 0.07899,1.065472 0.496279,1.90675 1.299264,2.50927 0.801878,0.60169 1.717232,0.832677 2.715159,0.684105 1.642075,-0.244473 2.998727,-0.890308 3.974859,-1.895705 0.87264,-0.889267 1.457287,-1.646115 1.779258,-2.243623 0.164914,-0.321992 0.25825,-0.599689 0.286536,-0.830196 0.07733,-0.708662 -0.290829,-2.479036 -1.08994,-5.368873 -0.294615,-1.065421 -0.637705,-2.117094 -1.019842,-3.158401 -10e-7,0 -3e-6,0 -4e-6,10e-7 z M 69.610207,52.474734 c 1.248505,-0.794363 2.468931,-1.318846 3.60027,-1.585112 1.16143,-0.265194 2.74919,-0.370695 4.690648,-0.27075 0.642166,0.100743 1.27403,0.206858 1.895476,0.316818 0.420769,0.07445 0.828859,0.178253 1.224174,0.310717 1.454063,0.555425 2.806407,1.661724 4.188728,3.353018 0.04512,-0.297624 0.08997,-0.595278 0.134536,-0.892961 0.06475,-0.836707 0.129887,-1.673385 0.195414,-2.510036 0.153193,-1.331465 0.303918,-2.663154 0.452185,-3.995065 0.351489,-4.044643 1.118959,-15.210342 0.972856,-16.190838 -0.09693,-0.693614 -0.337425,-1.090136 -0.713165,-1.203992 -0.366815,-0.112515 -0.634156,-0.33478 -0.806671,-0.656581 l 0.278443,-1.785873 c 0.189353,-0.109513 0.414934,-0.135886 0.68915,-0.08488 0.274883,0.02592 0.856737,-0.139191 1.764401,-0.559659 0.177368,-0.07232 0.35623,-0.146563 0.536618,-0.22262 0.527186,-0.254182 1.065891,-0.52388 1.61714,-0.806714 0.334855,-0.172561 0.543395,-0.261912 0.623205,-0.262475 0.05676,-4e-4 0.147238,0.02394 0.273982,0.07241 0.07096,0.52729 0.10888,0.912301 0.110286,1.164696 -0.0049,0.188189 -0.0098,0.376374 -0.01485,0.564556 l 0.0035,0.677156 c 0.0034,0.656404 0.03115,2.616261 0.09027,5.604769 l 0.01286,2.031534 c 0.0094,0.363609 0.01885,0.727221 0.02849,1.090835 -0.003,0.627083 -0.0062,1.254158 -0.0097,1.881225 0.0478,4.02854 0.100188,8.057199 0.157146,12.085969 -0.01222,0.765018 -0.02501,1.530013 -0.03837,2.294985 -0.03008,0.997139 -0.04007,2.589376 -0.02727,4.740184 0.0021,0.351221 0.01381,0.664558 0.03549,0.940584 l 0.0088,1.391978 c -0.01776,0.401611 -0.02624,0.701787 -0.02504,0.902808 0.0022,0.375181 0.03612,0.916569 0.103751,1.617995 l 0.01466,2.0692 c -0.0088,0.263316 -0.0178,0.526627 -0.02684,0.789933 -0.0383,0.725393 -0.0546,1.732052 -0.047,3.009368 0.0078,1.305266 0.03722,2.482004 0.09091,3.536758 0.02614,0.426639 0.04069,0.815205 0.04318,1.166461 l 0.01999,2.821634 c 0.0064,0.901367 0.03827,1.983148 0.09822,3.235977 0.449727,0.276197 1.568499,0.48887 3.314466,0.574591 0.5489,0.0126 1.035103,0.06046 1.461825,0.146107 0.143814,0.372249 0.221201,0.645479 0.230755,0.82137 0.01224,0.225372 -0.05644,0.568256 -0.209173,1.025527 -1.01975,0.286106 -2.108316,0.498355 -3.262899,0.63091 -3.528533,0.449979 -6.121896,0.906237 -7.750267,1.589541 -0.780361,0.352694 -1.333598,0.512222 -1.634106,0.48924 -0.30188,-0.02309 -0.644009,-0.07561 -1.025329,-0.158631 0.06544,-0.446273 0.103284,-0.73337 0.113727,-0.857536 0.142532,-1.694598 0.193795,-2.788915 0.155678,-3.267313 -0.417352,0.167718 -0.917455,0.380116 -1.543294,0.647192 -1.889249,0.815952 -3.667208,1.295201 -5.262414,1.463529 -0.287016,0.02589 -0.581381,0.04343 -0.882976,0.0524 -0.948059,0.114983 -1.918508,0.09231 -2.890253,-0.05524 -2.085802,-0.316716 -3.3515,-1.09197 -4.248734,-2.35693 -1.080303,-1.500308 -1.951339,-3.260727 -2.614856,-5.118949 -0.104546,-0.392645 -0.210139,-0.79198 -0.314308,-1.201173 -0.607896,-2.430037 -1.282981,-5.072792 -1.623969,-7.986955 -0.328924,-2.81106 -0.125841,-5.494701 1.148105,-7.943851 0.965973,-1.919002 2.484649,-3.647273 4.592138,-5.137888 -1.2e-5,1.9e-5 -2.4e-5,3.8e-5 -3.5e-5,5.7e-5 z m 6.38097,25.903418 c 0.0837,0.02381 0.165316,0.04612 0.244817,0.06693 0.407729,0.09685 0.7692,0.167815 1.082509,0.214328 0.875626,0.129993 1.829284,0.08174 2.840389,-0.150598 1.037227,-0.229186 2.129483,-0.630831 3.255656,-1.210392 0.09634,-0.818927 0.153126,-1.334058 0.17009,-1.53138 0.674972,-7.851264 0.989219,-12.745928 0.952123,-14.324921 -0.05051,-2.190265 -0.548908,-3.929887 -1.417488,-5.224052 -0.711475,-1.060079 -1.564691,-1.762942 -2.597128,-2.137239 -0.280941,-0.09295 -0.575773,-0.167106 -0.884557,-0.222057 -0.956112,-0.170149 -1.922432,-0.125599 -2.880499,0.138451 -0.936315,0.267613 -1.741596,0.744531 -2.400281,1.424291 -0.975751,0.998258 -1.733084,2.178514 -2.285848,3.541423 -0.758466,1.895892 -1.171715,3.703209 -1.318162,5.40483 -0.345799,4.017975 0.02527,7.326563 0.921353,9.585536 0.923562,2.295761 2.24892,3.773955 4.317025,4.424903 0,-1.7e-5 10e-7,-3.5e-5 10e-7,-5.2e-5 z M 99.213505,63.428827 c 0.367916,-2.171996 0.700887,-3.6185 1.040685,-4.356001 0.93888,-2.147365 1.9328,-3.86007 3.02683,-5.140192 1.11522,-1.283903 2.12162,-2.171603 3.06631,-2.667335 0.34172,-0.176219 0.66656,-0.332131 0.97537,-0.467741 0.80541,-0.400536 1.49937,-0.65462 2.08543,-0.762942 1.8658,-0.344854 3.40642,-0.438076 4.62929,-0.281105 1.21797,0.132261 2.28257,0.459056 3.19467,0.979694 1.31093,0.753333 2.41675,1.557352 3.31023,2.413248 0.89319,0.855618 1.69966,1.907017 2.41594,3.152665 0.7364,1.241213 1.33753,2.804231 1.7921,4.684745 -1.16361,0.190051 -2.3269,0.380041 -3.48988,0.56997 -0.95973,0.177809 -3.09108,0.4578 -6.38214,0.837662 -1.22651,0.125076 -2.06788,0.229868 -2.52606,0.314749 -0.13768,0.02551 -1.14597,0.223678 -3.02551,0.594641 0,0 0,0 0,0 0.006,-8.32e-4 -0.35202,0.05208 -0.34643,0.05124 -0.90619,0.122444 -1.81485,0.238846 -2.7256,0.347954 0.007,0.353979 0.0275,0.65536 0.0626,0.904619 0.18574,1.320328 0.52058,2.699736 1.01549,4.133555 0.49172,1.409975 1.10898,2.635457 1.85758,3.677305 0.57136,0.780105 1.2127,1.457881 1.92303,2.032344 0.20956,0.16764 0.42522,0.325858 0.64699,0.474667 0.97597,0.636246 1.94448,1.043871 2.9,1.224056 0.67412,0.117489 1.3498,0.234674 2.02704,0.351558 1.68698,-0.31324 2.8036,-0.584428 3.34926,-0.813435 1.00385,-0.441782 1.86158,-0.920195 2.573,-1.435322 0.72778,-0.543409 1.56565,-1.376185 2.5,-2.494037 0.9156,0.49416 1.69253,0.949509 2.32882,1.367781 -1.39828,2.736412 -3.06338,4.845469 -4.95982,6.321676 -1.87869,1.447131 -4.14131,2.416746 -6.75346,2.902177 -1.24404,0.231186 -2.34168,0.346216 -3.2905,0.344616 0,0 0,0 0,0 -0.41341,-0.01108 -0.80133,-0.0432 -1.1628,-0.09587 -1.64177,-0.220765 -3.18079,-0.724014 -4.58895,-1.502811 -1.40891,-0.779197 -2.65584,-1.821037 -3.72748,-3.117545 -1.07199,-1.296926 -1.88523,-2.66037 -2.45576,-4.083211 -0.748314,-1.860016 -1.152729,-3.379314 -1.247028,-4.528809 -0.178704,-2.17838 -0.184591,-4.162195 -0.03931,-5.934577 2e-5,3e-6 4e-5,5e-6 5.9e-5,7e-6 z m 17.943005,-4.1789 c -0.28539,-1.376889 -0.76518,-2.654632 -1.43015,-3.833636 -0.66483,-1.178842 -1.50403,-2.033084 -2.5138,-2.560925 -1.01483,-0.552859 -1.96745,-0.747015 -2.8687,-0.580364 -0.96933,0.17924 -1.8059,0.727089 -2.52058,1.645658 -0.27245,0.334496 -0.52723,0.723955 -0.76529,1.168575 -0.85463,1.596166 -1.19584,3.671524 -0.98441,6.200396 0.95939,-0.109607 1.91774,-0.227118 2.87456,-0.351009 1.40552,-0.252658 2.81115,-0.505338 4.2169,-0.75804 0.45432,-0.08413 1.08803,-0.239788 1.90012,-0.466779 0.58502,-0.184944 1.00097,-0.300265 1.24858,-0.346114 0.1857,-0.03439 0.46658,-0.07363 0.84277,-0.117762 z"
       id="text1"
       style="fill:#000000;stroke-width:1.59449;stroke-dasharray:none;stroke:none;stroke-opacity:1;font-weight:bold;font-size:42.6667px;font-family:Garamond;-inkscape-font-specification:'Garamond Bold';letter-spacing:0px;white-space:pre"
       aria-label="&#10;Jade"
       sodipodi:nodetypes="ccscsscscccccccccccccccscscscccscsccccccccccscscscccccccscccscscccccscssccccccscccscccccscscccsccsssccssscccsccccccccccccscccsccccccsccscccscsscccscccscscccsccscccsccscsscccscccccccsccsccccsccsccccccccccscsscscccccsscccsc"
       inkscape:path-effect="#path-effect3"
       inkscape:original-d="m 8.6035151,88.104738 c 0.8791888,1.557009 1.6594689,2.546825 2.3408409,2.96945 0.373655,0.155697 0.670381,0.233545 0.890178,0.233545 0.505535,0 0.93414,-0.266916 1.285816,-0.800747 0.505533,-0.75626 0.758299,-2.001874 0.758299,-3.736841 v -1.968497 c 0,-1.201124 0.04396,-2.346644 0.131873,-3.436559 0.04396,-0.622802 0.06594,-1.145515 0.06594,-1.568139 0,-0.200188 -0.02198,-0.956448 -0.06594,-2.268779 l 0.03297,-2.502342 -0.09892,-12.511722 c 0,-0.667291 -0.01098,-1.201123 -0.03295,-1.601497 -0.06595,-0.889723 -0.09892,-1.74608 -0.09892,-2.569072 l 0.03295,-7.240114 -0.164846,-6.139081 -0.164848,-11.521874 c 0,-1.645986 -0.01098,-2.680288 -0.03295,-3.102907 C 12.999453,30.228348 11.51582,30.050404 9.0321101,29.80573 H 8.2408461 L 7.3836369,29.705638 C 7.2517581,29.683398 7.0429507,29.650034 6.7572146,29.605546 L 6.59237,26.736191 c 2.1540131,0 4.00031,0.07785 5.53889,0.233551 1.538582,0.133459 3.593687,0.200188 6.165315,0.200188 2.219953,0 4.648712,-0.133458 7.286278,-0.400375 0.549494,-0.06673 0.978099,-0.100089 1.285816,-0.100089 0.373655,0 0.923148,0.04448 1.64848,0.133453 0.04396,0.511589 0.06594,0.900843 0.06594,1.16776 0,0.28916 -0.03297,0.734021 -0.09892,1.334583 -1.6265,0.222431 -2.692517,0.333646 -3.19805,0.333646 -1.164925,0.02224 -2.022135,0.122334 -2.571628,0.300282 -0.02197,0.533831 -0.03296,0.856355 -0.03296,0.967572 0,2.157576 0.02198,12.789728 0.06594,13.256831 0.06595,0.467105 0.09892,1.757202 0.09892,3.870291 v 2.769261 l 0.131872,4.30403 -0.06594,3.369821 0.09892,3.403187 -0.03295,3.50328 0.06594,2.569072 c 0,4.937957 -0.208808,8.774882 -0.626424,11.510776 -0.417615,2.713653 -1.077006,4.937957 -1.978175,6.672913 -1.274824,2.468977 -2.42876,4.203934 -3.461807,5.204871 -1.714419,1.623748 -3.395868,2.747023 -5.044348,3.369824 -1.648479,0.645051 -3.2859689,0.967577 -4.9124691,0.967577 -1.5385805,0 -2.868354,-0.544958 -3.9893205,-1.634873 C 1.8887438,92.953718 1.317271,91.685865 1.317271,90.240064 c 0,-1.178873 0.4066249,-2.157565 1.2198747,-2.936074 0.7912705,-0.778511 1.7363986,-1.167766 2.8353843,-1.167766 1.0550275,0 2.1320345,0.656171 3.231021,1.968514 z M 57.958994,73.12405 l 0.758301,0.500468 c 0.197818,0.155698 0.318707,0.34476 0.362666,0.567187 l 0.03295,0.166828 c -0.527513,1.979633 -1.219875,3.34758 -2.077084,4.10384 -0.857209,0.73402 -1.923226,1.10103 -3.19805,1.10103 -1.296805,0 -2.417771,-0.35589 -3.3629,-1.067671 -0.923148,-0.73402 -1.769368,-2.012992 -2.538659,-3.836917 -0.945128,1.690467 -2.274901,2.969439 -3.989319,3.836917 -1.714419,0.845238 -3.813483,1.267857 -6.297192,1.267857 -2.285893,0 -3.967342,-0.478223 -5.044348,-1.434669 -1.077007,-0.978697 -1.615511,-2.257675 -1.615511,-3.836934 0,-0.73402 0.153858,-1.47916 0.461575,-2.235419 0.329695,-0.756271 0.846219,-1.501417 1.549571,-2.235436 0.725331,-0.756259 1.879267,-1.57925 3.461807,-2.468972 0.241777,-0.133458 1.077007,-0.51159 2.505688,-1.134395 l 8.20943,-3.336458 c 0.06595,-0.845235 0.09892,-1.701593 0.09892,-2.569073 0,-3.002811 -0.362665,-5.049171 -1.087996,-6.13908 -0.439595,-0.667291 -1.208885,-1.000937 -2.307872,-1.000937 -1.098987,0 -2.110054,0.211309 -3.033203,0.633926 -0.923147,0.422619 -1.593529,0.967573 -2.011145,1.634864 -0.307716,0.489347 -0.571472,1.412433 -0.791269,2.769259 -0.153859,0.978695 -0.296727,1.545893 -0.428606,1.701594 -0.329695,0.422618 -0.934138,0.811871 -1.813327,1.16776 -0.85721,0.333646 -1.439673,0.578319 -1.747389,0.73402 -1.186905,0.578319 -2.132033,0.867479 -2.835384,0.867479 -0.307716,-0.266916 -0.461574,-0.645048 -0.461574,-1.134395 0,-1.267854 0.263757,-2.357763 0.79127,-3.269728 0.791271,-1.290097 1.978176,-2.535707 3.560717,-3.736832 1.604519,-1.223368 3.09914,-2.079726 4.483862,-2.569073 1.890258,-0.622805 4.19813,-0.934208 6.923616,-0.934208 1.758377,0 3.263988,0.333646 4.516833,1.000938 1.274824,0.645048 2.154013,1.612621 2.637568,2.902718 0.505534,1.290097 0.758301,3.614495 0.758301,6.973195 l -0.09892,5.505157 0.06594,4.037114 v 1.034297 c 0,0.934207 0.120889,1.579258 0.362666,1.935153 0.263757,0.333647 0.593452,0.50047 0.989087,0.50047 0.241777,0 0.450585,-0.06673 0.626422,-0.200188 l 0.989088,-1.568139 z M 47.144969,65.383462 c -1.252846,0.422618 -2.670539,1.134395 -4.253079,2.135332 -1.560561,0.978694 -2.648557,1.96851 -3.263989,2.969447 -0.439595,0.734019 -0.659393,1.634862 -0.659393,2.702528 0,0.956457 0.285737,1.746086 0.857212,2.368889 0.571473,0.622801 1.230864,0.934201 1.978174,0.934201 1.230865,0 2.274902,-0.355885 3.132112,-1.067655 1.164925,-0.956457 1.846297,-1.712723 2.044114,-2.268796 0.197817,-0.578321 0.296726,-2.190943 0.296726,-4.837864 0,-0.978693 -0.04396,-1.957387 -0.131873,-2.936082 z M 68.50926,53.805954 c 1.077007,-0.756264 2.110054,-1.301219 3.099143,-1.634864 1.011067,-0.333645 2.42876,-0.58944 4.253077,-0.767384 h 1.846298 c 2.395791,0 4.692672,0.834114 6.890644,2.502343 l 0.06594,-0.80075 -0.03295,-2.235427 0.131874,-3.570009 c 0,-3.759075 -0.285736,-13.387824 -0.857209,-14.388761 -0.329697,-0.600563 -0.91216,-0.923087 -1.747389,-0.967574 -0.813249,-0.04449 -1.472641,-0.189073 -1.978175,-0.433739 V 29.90829 c 0.417614,-0.133459 0.956117,-0.200188 1.61551,-0.200188 0.659391,-0.02224 1.945205,-0.255792 3.857442,-0.700656 l 1.120965,-0.233553 3.263991,-0.767384 c 0.659391,-0.155701 1.066015,-0.233552 1.219874,-0.233552 0.109899,0 0.285736,0.02225 0.527513,0.06674 0.13188,0.467104 0.19782,0.811871 0.19782,1.034301 l -0.03297,0.500469 v 0.600562 c 0,0.622806 0.03297,2.279913 0.09892,4.971321 v 1.801687 l 0.03296,0.967573 -0.03296,1.668229 0.09892,10.718657 -0.06594,2.035241 c -0.04396,0.889721 -0.06594,2.291033 -0.06594,4.203936 0,0.311403 0.01099,0.58944 0.03297,0.834112 v 1.23449 c -0.02198,0.355889 -0.03297,0.622805 -0.03297,0.80075 0,0.333647 0.03297,0.811872 0.09892,1.434677 v 1.835052 l -0.03296,0.700654 c -0.04396,0.645049 -0.06594,1.534771 -0.06594,2.669166 0,1.156639 0.02198,2.202063 0.06594,3.136271 0.02197,0.378135 0.03296,0.722901 0.03296,1.034296 v 2.502342 c 0,0.800759 0.02198,1.757211 0.06594,2.869356 0.395635,0.244677 1.362742,0.422624 2.901319,0.533842 0.48356,0.02221 0.912164,0.07781 1.285813,0.166813 0.109903,0.333645 0.164855,0.578322 0.164855,0.73403 0,0.200188 -0.07693,0.500469 -0.230786,0.900843 -0.90117,0.222427 -1.846299,0.389249 -2.835387,0.500468 -3.011223,0.378125 -5.154247,0.911958 -6.42907,1.6015 -0.615433,0.355884 -1.044037,0.533826 -1.285813,0.533826 -0.241778,0 -0.516525,-0.02226 -0.824241,-0.06678 0.02197,-0.400385 0.03296,-0.656181 0.03296,-0.767389 0,-1.51253 -0.03297,-2.480102 -0.09892,-2.902716 -0.329697,0.177937 -0.736322,0.411488 -1.219875,0.700655 -1.472641,0.889717 -2.813405,1.512519 -4.02229,1.868405 -1.208885,0.333645 -2.593608,0.500468 -4.154169,0.500468 -2.769445,0 -4.978408,-0.533833 -6.626889,-1.601499 -2.439749,-1.557009 -4.132188,-3.425423 -5.077315,-5.605244 -0.92315,-2.179817 -1.384725,-4.570944 -1.384725,-7.17338 0,-4.493097 2.044115,-8.330023 6.132344,-11.510779 z m 10.154636,22.087343 c 0.461574,0.04452 0.857209,0.06678 1.186905,0.06678 0.725331,0 1.494622,-0.155703 2.307871,-0.467109 0.83523,-0.311395 1.714419,-0.767373 2.637568,-1.367935 0.02199,-0.734021 0.03298,-1.190005 0.03298,-1.367953 0,-7.051047 -0.09891,-11.29947 -0.296727,-12.745269 -0.263756,-1.935145 -0.989087,-3.425429 -2.175993,-4.470854 -1.186905,-1.045422 -2.626577,-1.568133 -4.319017,-1.568133 -0.967107,0 -1.890256,0.177944 -2.769445,0.533833 -0.85721,0.355888 -1.560562,0.867478 -2.110055,1.534771 -0.81325,0.978693 -1.428682,2.090845 -1.846297,3.336455 -0.571472,1.734959 -0.857208,3.358701 -0.857208,4.871228 0,3.625617 0.7583,6.405998 2.2749,8.341142 1.516601,1.912904 3.494777,3.013934 5.934527,3.30309 z M 99.92929,61.713359 c 0.57147,-1.890659 1.077,-3.147392 1.5166,-3.770197 1.23087,-1.82393 2.53866,-3.247485 3.92338,-4.270666 1.40671,-1.02318 2.67054,-1.701593 3.7915,-2.035238 1.45066,-0.422618 2.62658,-0.633927 3.52776,-0.633927 2.06609,0 3.73654,0.166823 5.01137,0.500468 1.27482,0.311403 2.34083,0.767386 3.19804,1.367948 1.23087,0.867478 2.21996,1.746078 2.96727,2.635801 0.74731,0.889722 1.35176,1.935145 1.81333,3.13627 0.48355,1.201125 0.74731,2.658046 0.79127,4.370761 l -3.65962,-0.06674 c -1.01107,0 -3.23102,-0.100094 -6.65987,-0.300282 -1.27482,-0.08897 -2.15401,-0.133452 -2.63756,-0.133452 -0.15387,0 -1.34077,0.01112 -3.56072,0.03336 h -2.83538 c -0.044,0.311403 -0.066,0.578319 -0.066,0.80075 0,1.178881 0.14287,2.424491 0.4286,3.736832 0.28575,1.290096 0.71435,2.435611 1.28582,3.436544 0.57148,0.978697 1.27483,1.823935 2.11005,2.535716 0.85721,0.711781 1.7364,1.223369 2.63757,1.534765 l 1.91225,0.633937 c 1.69243,0 2.82439,-0.05561 3.39586,-0.166829 1.05503,-0.222426 1.97818,-0.500462 2.76944,-0.834107 0.81325,-0.355896 1.79135,-0.945338 2.93431,-1.768327 0.79126,0.578323 1.45065,1.101036 1.97816,1.568139 -1.93422,2.157571 -3.94536,3.725704 -6.03343,4.704401 -2.06609,0.956447 -4.38496,1.43467 -6.95659,1.43467 -1.73639,0 -3.15408,-0.155703 -4.25307,-0.467109 -1.47265,-0.400375 -2.80242,-1.012056 -3.98932,-1.835045 -1.18691,-0.822988 -2.20897,-1.846169 -3.06618,-3.069544 -0.85721,-1.223363 -1.49462,-2.480096 -1.91223,-3.770199 -0.549495,-1.690467 -0.824242,-3.04729 -0.824242,-4.07047 0,-1.935147 0.153857,-3.681227 0.461571,-5.23824 z m 19.15533,-1.434676 c -0.0219,-1.245612 -0.26371,-2.435615 -0.72533,-3.570009 -0.46157,-1.134397 -1.17592,-2.012998 -2.14303,-2.635803 -0.9671,-0.645048 -1.9452,-0.967572 -2.9343,-0.967572 -1.47263,0 -2.8024,0.656169 -3.9893,1.968508 -1.18691,1.312341 -1.8573,3.091786 -2.01115,5.338333 l 7.51707,0.03336 c 0.48355,0 1.16492,-0.03336 2.04411,-0.100089 0.63741,-0.06673 1.088,-0.100089 1.35175,-0.100089 0.19782,0 0.49455,0.01112 0.89018,0.03336 z" />
  </g>
</svg>
